<?xml version="1.0" encoding="UTF-8"?>
<svg width="20px" height="20px" viewBox="0 0 20 20" version="1.1" xmlns="http://www.w3.org/2000/svg" xmlns:xlink="http://www.w3.org/1999/xlink">
    <!-- Generator: Sketch 53.2 (72643) - https://sketchapp.com -->
    <title>Instagram</title>
    <desc>Created with Sketch.</desc>
    <g id="01-Home" stroke="none" stroke-width="1" fill="none" fill-rule="evenodd">
        <g id="01.1-Home---locatie" transform="translate(-978.000000, -3720.000000)" fill="#FFFFFF">
            <g id="Group" transform="translate(0.000000, 3630.000000)">
                <g id="Group-2" transform="translate(900.000000, 32.000000)">
                    <g id="Social" transform="translate(0.000000, 44.000000)">
                        <g id="Instagram" transform="translate(64.000000, 0.000000)">
                            <path d="M27.3330621,24 C27.3330621,22.1642119 25.8357881,20.6669379 24,20.6669379 C22.1642119,20.6669379 20.6669379,22.1642119 20.6669379,24 C20.6669379,25.8357881 22.1642119,27.3330621 24,27.3330621 C25.8357881,27.3330621 27.3330621,25.8357881 27.3330621,24 Z M29.1297909,24 C29.1297909,26.8383107 26.8383107,29.1297909 24,29.1297909 C21.1616893,29.1297909 18.8702091,26.8383107 18.8702091,24 C18.8702091,21.1616893 21.1616893,18.8702091 24,18.8702091 C26.8383107,18.8702091 29.1297909,21.1616893 29.1297909,24 Z M30.5359264,18.6618927 C30.5359264,19.3259012 30.0021157,19.8597119 29.3381073,19.8597119 C28.6740988,19.8597119 28.1402881,19.3259012 28.1402881,18.6618927 C28.1402881,17.9978843 28.6740988,17.4640736 29.3381073,17.4640736 C30.0021157,17.4640736 30.5359264,17.9978843 30.5359264,18.6618927 Z M24,15.7975425 C22.5417853,15.7975425 19.4170396,15.6803646 18.1020425,16.2011555 C17.6463504,16.3834323 17.3078363,16.6047685 16.9563024,16.9563024 C16.6047685,17.3078363 16.3834323,17.6463504 16.2011555,18.1020425 C15.6803646,19.4170396 15.7975425,22.5417853 15.7975425,24 C15.7975425,25.4582147 15.6803646,28.5829604 16.2011555,29.8979575 C16.3834323,30.3536496 16.6047685,30.6921637 16.9563024,31.0436976 C17.3078363,31.3952315 17.6463504,31.6165677 18.1020425,31.7988445 C19.4170396,32.3196354 22.5417853,32.2024575 24,32.2024575 C25.4582147,32.2024575 28.5829604,32.3196354 29.8979575,31.7988445 C30.3536496,31.6165677 30.6921637,31.3952315 31.0436976,31.0436976 C31.3952315,30.6921637 31.6165677,30.3536496 31.7988445,29.8979575 C32.3196354,28.5829604 32.2024575,25.4582147 32.2024575,24 C32.2024575,22.5417853 32.3196354,19.4170396 31.7988445,18.1020425 C31.6165677,17.6463504 31.3952315,17.3078363 31.0436976,16.9563024 C30.6921637,16.6047685 30.3536496,16.3834323 29.8979575,16.2011555 C28.5829604,15.6803646 25.4582147,15.7975425 24,15.7975425 Z M33.9991863,24 C33.9991863,25.380096 34.012206,26.7471723 33.9340874,28.1272683 C33.8559688,29.7287005 33.4914151,31.1478558 32.3196354,32.3196354 C31.1478558,33.4914151 29.7287005,33.8559688 28.1272683,33.9340874 C26.7471723,34.012206 25.380096,33.9991863 24,33.9991863 C22.619904,33.9991863 21.2528277,34.012206 19.8727317,33.9340874 C18.2712995,33.8559688 16.8521442,33.4914151 15.6803646,32.3196354 C14.5085849,31.1478558 14.1440312,29.7287005 14.0659126,28.1272683 C13.987794,26.7471723 14.0008137,25.380096 14.0008137,24 C14.0008137,22.619904 13.987794,21.2528277 14.0659126,19.8727317 C14.1440312,18.2712995 14.5085849,16.8521442 15.6803646,15.6803646 C16.8521442,14.5085849 18.2712995,14.1440312 19.8727317,14.0659126 C21.2528277,13.987794 22.619904,14.0008137 24,14.0008137 C25.380096,14.0008137 26.7471723,13.987794 28.1272683,14.0659126 C29.7287005,14.1440312 31.1478558,14.5085849 32.3196354,15.6803646 C33.4914151,16.8521442 33.8559688,18.2712995 33.9340874,19.8727317 C34.012206,21.2528277 33.9991863,22.619904 33.9991863,24 Z"></path>
                        </g>
                    </g>
                </g>
            </g>
        </g>
    </g>
</svg>